0
SECTION
  2
HEADER
  9
$EXTMAX
 10
   31.2000
 20
   12.8000
  9
$EXTMIN
 10
   -0.8000
 20
   -1.8000
  9
$LIMMAX
 10
   31.2000
 20
   12.8000
  9
$LIMMIN
 10
   -0.8000
 20
   -1.8000
  0
ENDSEC
0
SECTION
  2
TABLES
  0
TABLE
  2
LTYPE
 70
     1
  0
LTYPE
  2
CONTINUOUS
 70
    64
  3
Solid line
 72
   65
 73
    0
 40
0.0
  0
ENDTAB
  0
TABLE
  2
LAYER
 70
       3
  0
LAYER
  2
251
 70
    0
 62
251
  6
CONTINUOUS
  0
LAYER
  2
0
 70
    0
 62
1
  6
CONTINUOUS
  0
LAYER
  2
1
 70
    0
 62
1
  6
CONTINUOUS
  0
ENDTAB
  0
ENDSEC
0
SECTION
  2
ENTITIES
  0
LINE
  8
251
 62
11
 10
     24.0000
 20
     12.0000
 30
      0.0000
 11
     24.0000
 21
      0.0000
 31
      0.0000
  0
LINE
  8
251
 62
11
 10
     24.0000
 20
      0.0000
 30
      0.0000
 11
     15.1122
 21
      0.0000
 31
      0.0000
  0
LINE
  8
251
 62
11
 10
     15.1122
 20
      0.0000
 30
      0.0000
 11
     15.1122
 21
     12.0000
 31
      0.0000
  0
LINE
  8
251
 62
11
 10
     15.1122
 20
     12.0000
 30
      0.0000
 11
     24.0000
 21
     12.0000
 31
      0.0000
  0
LINE
  8
251
 62
9
 10
      0.0000
 20
      0.0000
 30
      0.0000
 11
      0.0000
 21
     12.0000
 31
      0.0000
  0
LINE
  8
251
 62
9
 10
      0.0000
 20
     12.0000
 30
      0.0000
 11
     24.0000
 21
     12.0000
 31
      0.0000
  0
LINE
  8
251
 62
9
 10
     24.0000
 20
     12.0000
 30
      0.0000
 11
     24.0000
 21
      0.0000
 31
      0.0000
  0
LINE
  8
251
 62
9
 10
     24.0000
 20
      0.0000
 30
      0.0000
 11
      0.0000
 21
      0.0000
 31
      0.0000
  0
TEXT
  8
251
 62
12
 10
      6.3561
 20
     -0.6000
 30
      0.0000
 40
      0.4000
 1
15.112
  0
POLYLINE
  8
251
 62
12
 10
      0.0000
 20
      0.0000
 30
      0.0000
 66
  1
 70
  0
  0
VERTEX
  8
251
 62
12
 10
      6.1561
 20
     -0.4000
 30
      0.0000
  0
VERTEX
  8
251
 62
12
 10
      0.0000
 20
     -0.4000
 30
      0.0000
  0
VERTEX
  8
251
 62
12
 10
      0.4000
 20
     -0.6000
 30
      0.0000
  0
VERTEX
  8
251
 62
12
 10
      0.4000
 20
     -0.2000
 30
      0.0000
  0
VERTEX
  8
251
 62
12
 10
      0.0000
 20
     -0.4000
 30
      0.0000
  0
VERTEX
  8
251
 62
12
 10
      0.0000
 20
     -0.8000
 30
      0.0000
  0
VERTEX
  8
251
 62
12
 10
      0.0000
 20
      0.0000
 30
      0.0000
  0
SEQEND
  8
251
 62
12
  0
POLYLINE
  8
251
 62
12
 10
      0.0000
 20
      0.0000
 30
      0.0000
 66
  1
 70
  0
  0
VERTEX
  8
251
 62
12
 10
      8.9561
 20
     -0.4000
 30
      0.0000
  0
VERTEX
  8
251
 62
12
 10
     15.1122
 20
     -0.4000
 30
      0.0000
  0
VERTEX
  8
251
 62
12
 10
     14.7122
 20
     -0.2000
 30
      0.0000
  0
VERTEX
  8
251
 62
12
 10
     14.7122
 20
     -0.6000
 30
      0.0000
  0
VERTEX
  8
251
 62
12
 10
     15.1122
 20
     -0.4000
 30
      0.0000
  0
VERTEX
  8
251
 62
12
 10
     15.1122
 20
      0.0000
 30
      0.0000
  0
VERTEX
  8
251
 62
12
 10
     15.1122
 20
     -0.8000
 30
      0.0000
  0
SEQEND
  8
251
 62
12
  0
TEXT
  8
251
 62
12
 10
     10.8000
 20
     12.2000
 30
      0.0000
 40
      0.4000
 1
24.000
  0
POLYLINE
  8
251
 62
12
 10
      0.0000
 20
      0.0000
 30
      0.0000
 66
  1
 70
  0
  0
VERTEX
  8
251
 62
12
 10
     10.6000
 20
     12.4000
 30
      0.0000
  0
VERTEX
  8
251
 62
12
 10
      0.0000
 20
     12.4000
 30
      0.0000
  0
VERTEX
  8
251
 62
12
 10
      0.4000
 20
     12.2000
 30
      0.0000
  0
VERTEX
  8
251
 62
12
 10
      0.4000
 20
     12.6000
 30
      0.0000
  0
VERTEX
  8
251
 62
12
 10
      0.0000
 20
     12.4000
 30
      0.0000
  0
VERTEX
  8
251
 62
12
 10
      0.0000
 20
     12.0000
 30
      0.0000
  0
VERTEX
  8
251
 62
12
 10
      0.0000
 20
     12.8000
 30
      0.0000
  0
SEQEND
  8
251
 62
12
  0
POLYLINE
  8
251
 62
12
 10
      0.0000
 20
      0.0000
 30
      0.0000
 66
  1
 70
  0
  0
VERTEX
  8
251
 62
12
 10
     13.4000
 20
     12.4000
 30
      0.0000
  0
VERTEX
  8
251
 62
12
 10
     24.0000
 20
     12.4000
 30
      0.0000
  0
VERTEX
  8
251
 62
12
 10
     23.6000
 20
     12.6000
 30
      0.0000
  0
VERTEX
  8
251
 62
12
 10
     23.6000
 20
     12.2000
 30
      0.0000
  0
VERTEX
  8
251
 62
12
 10
     24.0000
 20
     12.4000
 30
      0.0000
  0
VERTEX
  8
251
 62
12
 10
     24.0000
 20
     12.8000
 30
      0.0000
  0
VERTEX
  8
251
 62
12
 10
     24.0000
 20
     12.0000
 30
      0.0000
  0
SEQEND
  8
251
 62
12
  0
TEXT
  8
251
 62
12
 10
     -0.2000
 20
      4.8000
 30
      0.0000
 40
      0.4000
 1
12.000
 50
     90.0000
  0
POLYLINE
  8
251
 62
12
 10
      0.0000
 20
      0.0000
 30
      0.0000
 66
  1
 70
  0
  0
VERTEX
  8
251
 62
12
 10
     -0.4000
 20
      4.6000
 30
      0.0000
  0
VERTEX
  8
251
 62
12
 10
     -0.4000
 20
      0.0000
 30
      0.0000
  0
VERTEX
  8
251
 62
12
 10
     -0.2000
 20
      0.4000
 30
      0.0000
  0
VERTEX
  8
251
 62
12
 10
     -0.6000
 20
      0.4000
 30
      0.0000
  0
VERTEX
  8
251
 62
12
 10
     -0.4000
 20
      0.0000
 30
      0.0000
  0
VERTEX
  8
251
 62
12
 10
      0.0000
 20
      0.0000
 30
      0.0000
  0
VERTEX
  8
251
 62
12
 10
     -0.8000
 20
      0.0000
 30
      0.0000
  0
SEQEND
  8
251
 62
12
  0
POLYLINE
  8
251
 62
12
 10
      0.0000
 20
      0.0000
 30
      0.0000
 66
  1
 70
  0
  0
VERTEX
  8
251
 62
12
 10
     -0.4000
 20
      7.4000
 30
      0.0000
  0
VERTEX
  8
251
 62
12
 10
     -0.4000
 20
     12.0000
 30
      0.0000
  0
VERTEX
  8
251
 62
12
 10
     -0.6000
 20
     11.6000
 30
      0.0000
  0
VERTEX
  8
251
 62
12
 10
     -0.2000
 20
     11.6000
 30
      0.0000
  0
VERTEX
  8
251
 62
12
 10
     -0.4000
 20
     12.0000
 30
      0.0000
  0
VERTEX
  8
251
 62
12
 10
     -0.8000
 20
     12.0000
 30
      0.0000
  0
VERTEX
  8
251
 62
12
 10
      0.0000
 20
     12.0000
 30
      0.0000
  0
SEQEND
  8
251
 62
12
  0
POLYLINE
  8
0
 62
7
 10
      0.0000
 20
      0.0000
 30
      0.0000
 66
  1
 70
  1
  0
VERTEX
  8
0
 62
7
 10
      0.8298
 20
      1.8921
 30
      0.0000
  0
VERTEX
  8
0
 62
7
 10
      0.7033
 20
      1.7950
 30
      0.0000
 42
          0.4077758
  0
VERTEX
  8
0
 62
7
 10
      0.6909
 20
      1.7084
 30
      0.0000
  0
VERTEX
  8
0
 62
7
 10
      0.9276
 20
      1.3858
 30
      0.0000
 42
          0.8275378
  0
VERTEX
  8
0
 62
7
 10
      1.0384
 20
      1.4387
 30
      0.0000
  0
VERTEX
  8
0
 62
7
 10
      0.9283
 20
      1.8584
 30
      0.0000
 42
          0.5363416
  0
VERTEX
  8
0
 62
7
 10
      0.8298
 20
      1.8921
 30
      0.0000
  0
SEQEND
  8
0
 62
7
  0
POLYLINE
  8
0
 62
7
 10
      0.0000
 20
      0.0000
 30
      0.0000
 66
  1
 70
  1
  0
VERTEX
  8
0
 62
7
 10
      1.5664
 20
      1.7900
 30
      0.0000
 42
          0.6172176
  0
VERTEX
  8
0
 62
7
 10
      1.4825
 20
      1.7162
 30
      0.0000
  0
VERTEX
  8
0
 62
7
 10
      1.6350
 20
      1.1349
 30
      0.0000
 42
          0.3578651
  0
VERTEX
  8
0
 62
7
 10
      1.6992
 20
      1.0884
 30
      0.0000
  0
VERTEX
  8
0
 62
7
 10
      2.8161
 20
      1.1558
 30
      0.0000
 42
          0.7990255
  0
VERTEX
  8
0
 62
7
 10
      2.8358
 20
      1.2762
 30
      0.0000
  0
VERTEX
  8
0
 62
7
 10
      2.2216
 20
      1.5248
 30
      0.0000
  0
SEQEND
  8
0
 62
7
  0
POLYLINE
  8
0
 62
7
 10
      0.0000
 20
      0.0000
 30
      0.0000
 66
  1
 70
  1
  0
VERTEX
  8
0
 62
7
 10
      2.3313
 20
      0.7509
 30
      0.0000
  0
VERTEX
  8
0
 62
7
 10
      2.3313
 20
      0.7509
 30
      0.0000
 42
         -0.1646011
  0
VERTEX
  8
0
 62
7
 10
      2.5923
 20
      0.6500
 30
      0.0000
 42
          0.1710482
  0
VERTEX
  8
0
 62
7
 10
      2.6702
 20
      0.6210
 30
      0.0000
  0
VERTEX
  8
0
 62
7
 10
      3.5797
 20
      0.6051
 30
      0.0000
 42
          0.2908977
  0
VERTEX
  8
0
 62
7
 10
      3.6369
 20
      0.6401
 30
      0.0000
  0
VERTEX
  8
0
 62
7
 10
      3.6970
 20
      0.7627
 30
      0.0000
 42
          0.5749022
  0
VERTEX
  8
0
 62
7
 10
      3.6517
 20
      0.8306
 30
      0.0000
  0
SEQEND
  8
0
 62
7
  0
CIRCLE
  8
0
 62
7
 10
      3.8125
 20
      0.2885
 30
      0.0000
 40
      0.0860
  0
CIRCLE
  8
0
 62
7
 10
      1.3129
 20
      0.3321
 30
      0.0000
 40
      0.0860
  0
CIRCLE
  8
0
 62
7
 10
      0.9485
 20
      2.3773
 30
      0.0000
 40
      0.0860
  0
CIRCLE
  8
0
 62
7
 10
      4.1928
 20
      1.0640
 30
      0.0000
 40
      0.0860
  0
CIRCLE
  8
0
 62
7
 10
      0.2220
 20
      1.8194
 30
      0.0000
 40
      0.0860
  0
CIRCLE
  8
0
 62
7
 10
      2.3127
 20
      0.3147
 30
      0.0000
 40
      0.2187
  0
CIRCLE
  8
0
 62
7
 10
      2.3389
 20
      1.8145
 30
      0.0000
 40
      0.2187
  0
POLYLINE
  8
0
 62
7
 10
      0.0000
 20
      0.0000
 30
      0.0000
 66
  1
 70
  1
  0
VERTEX
  8
0
 62
7
 10
      3.9809
 20
      0.2059
 30
      0.0000
 42
         -0.2908969
  0
VERTEX
  8
0
 62
7
 10
      3.8092
 20
      0.1010
 30
      0.0000
  0
VERTEX
  8
0
 62
7
 10
      2.6156
 20
      0.1219
 30
      0.0000
 42
          0.1962607
  0
VERTEX
  8
0
 62
7
 10
      2.5275
 20
      0.0877
 30
      0.0000
 42
         -0.4082482
  0
VERTEX
  8
0
 62
7
 10
      2.0902
 20
      0.0953
 30
      0.0000
 42
          0.1962616
  0
VERTEX
  8
0
 62
7
 10
      2.0033
 20
      0.1326
 30
      0.0000
  0
VERTEX
  8
0
 62
7
 10
      1.3096
 20
      0.1447
 30
      0.0000
 42
         -0.2342771
  0
VERTEX
  8
0
 62
7
 10
      1.1617
 20
      0.2212
 30
      0.0000
  0
VERTEX
  8
0
 62
7
 10
      0.0708
 20
      1.7085
 30
      0.0000
 42
         -0.4077753
  0
VERTEX
  8
0
 62
7
 10
      0.1078
 20
      1.9681
 30
      0.0000
  0
VERTEX
  8
0
 62
7
 10
      0.8343
 20
      2.5260
 30
      0.0000
 42
         -0.2658954
  0
VERTEX
  8
0
 62
7
 10
      1.0189
 20
      2.5511
 30
      0.0000
  0
VERTEX
  8
0
 62
7
 10
      2.1775
 20
      2.0821
 30
      0.0000
 42
         -0.5000000
  0
VERTEX
  8
0
 62
7
 10
      2.6410
 20
      1.8944
 30
      0.0000
  0
VERTEX
  8
0
 62
7
 10
      4.2631
 20
      1.2378
 30
      0.0000
 42
         -0.4352395
  0
VERTEX
  8
0
 62
7
 10
      4.3611
 20
      0.9814
 30
      0.0000
  0
SEQEND
  8
0
 62
7
  0
TEXT
  8
251
 62
13
 10
      3.6821
 20
      0.1065
 30
      0.0000
 40
      0.3000
 1
1
  0
CIRCLE
  8
1
 62
7
 10
      7.0969
 20
      0.7405
 30
      0.0000
 40
      0.0860
  0
CIRCLE
  8
1
 62
7
 10
      8.0177
 20
      1.9246
 30
      0.0000
 40
      0.0860
  0
CIRCLE
  8
1
 62
7
 10
      5.5180
 20
      1.9683
 30
      0.0000
 40
      0.0860
  0
LINE
  8
1
 62
7
 10
      6.9434
 20
      0.5432
 30
      0.0000
 11
      5.3646
 21
      1.7709
 31
      0.0000
  0
ARC
  8
1
 62
7
 10
      5.5180
 20
      1.9683
 30
      0.0000
 40
      0.2500
 50
  89.0000
 51
 232.1300
  0
LINE
  8
1
 62
7
 10
      5.5224
 20
      2.2182
 30
      0.0000
 11
      8.0220
 21
      2.1746
 31
      0.0000
  0
ARC
  8
1
 62
7
 10
      8.0177
 20
      1.9246
 30
      0.0000
 40
      0.2500
 50
 322.1302
 51
  88.9998
  0
LINE
  8
1
 62
7
 10
      8.2150
 20
      1.7712
 30
      0.0000
 11
      7.2942
 21
      0.5870
 31
      0.0000
  0
ARC
  8
1
 62
7
 10
      7.0969
 20
      0.7405
 30
      0.0000
 40
      0.2500
 50
 232.1300
 51
 322.1301
  0
TEXT
  8
251
 62
13
 10
      6.0961
 20
      1.1254
 30
      0.0000
 40
      0.3000
 1
2
  0
CIRCLE
  8
1
 62
7
 10
      2.2321
 20
      2.4812
 30
      0.0000
 40
      0.0860
  0
CIRCLE
  8
1
 62
7
 10
      6.7314
 20
      2.5597
 30
      0.0000
 40
      0.0860
  0
LINE
  8
1
 62
7
 10
      1.9821
 20
      2.4768
 30
      0.0000
 11
      1.9791
 21
      2.6478
 31
      0.0000
  0
ARC
  8
1
 62
7
 10
      1.8542
 20
      2.6456
 30
      0.0000
 40
      0.1250
 50
   1.0000
 51
  90.9999
  0
LINE
  8
1
 62
7
 10
      1.8520
 20
      2.7706
 30
      0.0000
 11
      0.1401
 21
      2.7407
 31
      0.0000
  0
ARC
  8
1
 62
7
 10
      0.1380
 20
      2.8657
 30
      0.0000
 40
      0.1250
 50
 163.3239
 51
 271.0002
  0
LINE
  8
1
 62
7
 10
      0.0182
 20
      2.9015
 30
      0.0000
 11
      0.4176
 21
      4.2346
 31
      0.0000
  0
ARC
  8
1
 62
7
 10
      0.7768
 20
      4.1270
 30
      0.0000
 40
      0.3750
 50
  90.9999
 51
 163.3238
  0
LINE
  8
1
 62
7
 10
      0.7702
 20
      4.5019
 30
      0.0000
 11
      8.1218
 21
      4.6303
 31
      0.0000
  0
ARC
  8
1
 62
7
 10
      8.1284
 20
      4.2553
 30
      0.0000
 40
      0.3750
 50
  18.6763
 51
  91.0001
  0
LINE
  8
1
 62
7
 10
      8.4836
 20
      4.3754
 30
      0.0000
 11
      8.9292
 21
      3.0571
 31
      0.0000
  0
ARC
  8
1
 62
7
 10
      8.8108
 20
      3.0171
 30
      0.0000
 40
      0.1250
 50
 271.0002
 51
  18.6764
  0
LINE
  8
1
 62
7
 10
      8.8130
 20
      2.8921
 30
      0.0000
 11
      7.1012
 21
      2.8622
 31
      0.0000
  0
ARC
  8
1
 62
7
 10
      7.1034
 20
      2.7372
 30
      0.0000
 40
      0.1250
 50
  91.0000
 51
 181.0001
  0
LINE
  8
1
 62
7
 10
      6.9784
 20
      2.7350
 30
      0.0000
 11
      6.9814
 21
      2.5641
 31
      0.0000
  0
ARC
  8
1
 62
7
 10
      6.7314
 20
      2.5597
 30
      0.0000
 40
      0.2500
 50
 271.0000
 51
   1.0000
  0
LINE
  8
1
 62
7
 10
      6.7358
 20
      2.3097
 30
      0.0000
 11
      2.2364
 21
      2.2312
 31
      0.0000
  0
ARC
  8
1
 62
7
 10
      2.2321
 20
      2.4812
 30
      0.0000
 40
      0.2500
 50
 181.0000
 51
 271.0000
  0
TEXT
  8
251
 62
13
 10
      1.9806
 20
      2.4149
 30
      0.0000
 40
      0.3000
 1
3
  0
POLYLINE
  8
0
 62
7
 10
      0.0000
 20
      0.0000
 30
      0.0000
 66
  1
 70
  1
  0
VERTEX
  8
0
 62
7
 10
      9.0418
 20
      2.3109
 30
      0.0000
  0
VERTEX
  8
0
 62
7
 10
      8.9153
 20
      2.2138
 30
      0.0000
 42
          0.4077761
  0
VERTEX
  8
0
 62
7
 10
      8.9030
 20
      2.1272
 30
      0.0000
  0
VERTEX
  8
0
 62
7
 10
      9.1396
 20
      1.8046
 30
      0.0000
 42
          0.8275278
  0
VERTEX
  8
0
 62
7
 10
      9.2504
 20
      1.8575
 30
      0.0000
  0
VERTEX
  8
0
 62
7
 10
      9.1404
 20
      2.2772
 30
      0.0000
 42
          0.5363450
  0
VERTEX
  8
0
 62
7
 10
      9.0418
 20
      2.3109
 30
      0.0000
  0
SEQEND
  8
0
 62
7
  0
POLYLINE
  8
0
 62
7
 10
      0.0000
 20
      0.0000
 30
      0.0000
 66
  1
 70
  1
  0
VERTEX
  8
0
 62
7
 10
      9.7785
 20
      2.2088
 30
      0.0000
 42
          0.6172093
  0
VERTEX
  8
0
 62
7
 10
      9.6945
 20
      2.1350
 30
      0.0000
  0
VERTEX
  8
0
 62
7
 10
      9.8470
 20
      1.5537
 30
      0.0000
 42
          0.3578638
  0
VERTEX
  8
0
 62
7
 10
      9.9112
 20
      1.5072
 30
      0.0000
  0
VERTEX
  8
0
 62
7
 10
     11.0282
 20
      1.5746
 30
      0.0000
 42
          0.7990162
  0
VERTEX
  8
0
 62
7
 10
     11.0478
 20
      1.6949
 30
      0.0000
  0
VERTEX
  8
0
 62
7
 10
     10.4337
 20
      1.9436
 30
      0.0000
  0
SEQEND
  8
0
 62
7
  0
POLYLINE
  8
0
 62
7
 10
      0.0000
 20
      0.0000
 30
      0.0000
 66
  1
 70
  1
  0
VERTEX
  8
0
 62
7
 10
     10.5433
 20
      1.1697
 30
      0.0000
  0
VERTEX
  8
0
 62
7
 10
     10.5433
 20
      1.1697
 30
      0.0000
 42
         -0.1646017
  0
VERTEX
  8
0
 62
7
 10
     10.8044
 20
      1.0688
 30
      0.0000
 42
          0.1710460
  0
VERTEX
  8
0
 62
7
 10
     10.8822
 20
      1.0398
 30
      0.0000
  0
VERTEX
  8
0
 62
7
 10
     11.7917
 20
      1.0239
 30
      0.0000
 42
          0.2908985
  0
VERTEX
  8
0
 62
7
 10
     11.8489
 20
      1.0589
 30
      0.0000
  0
VERTEX
  8
0
 62
7
 10
     11.9090
 20
      1.1815
 30
      0.0000
 42
          0.5749032
  0
VERTEX
  8
0
 62
7
 10
     11.8637
 20
      1.2494
 30
      0.0000
  0
SEQEND
  8
0
 62
7
  0
CIRCLE
  8
0
 62
7
 10
     12.0245
 20
      0.7073
 30
      0.0000
 40
      0.0860
  0
CIRCLE
  8
0
 62
7
 10
      9.5249
 20
      0.7509
 30
      0.0000
 40
      0.0860
  0
CIRCLE
  8
0
 62
7
 10
      9.1605
 20
      2.7961
 30
      0.0000
 40
      0.0860
  0
CIRCLE
  8
0
 62
7
 10
     12.4048
 20
      1.4828
 30
      0.0000
 40
      0.0860
  0
CIRCLE
  8
0
 62
7
 10
      8.4340
 20
      2.2382
 30
      0.0000
 40
      0.0860
  0
CIRCLE
  8
0
 62
7
 10
     10.5248
 20
      0.7335
 30
      0.0000
 40
      0.2187
  0
CIRCLE
  8
0
 62
7
 10
     10.5509
 20
      2.2332
 30
      0.0000
 40
      0.2187
  0
POLYLINE
  8
0
 62
7
 10
      0.0000
 20
      0.0000
 30
      0.0000
 66
  1
 70
  1
  0
VERTEX
  8
0
 62
7
 10
     12.1929
 20
      0.6247
 30
      0.0000
 42
         -0.2908964
  0
VERTEX
  8
0
 62
7
 10
     12.0212
 20
      0.5198
 30
      0.0000
  0
VERTEX
  8
0
 62
7
 10
     10.8276
 20
      0.5407
 30
      0.0000
 42
          0.1962620
  0
VERTEX
  8
0
 62
7
 10
     10.7395
 20
      0.5065
 30
      0.0000
 42
         -0.4082477
  0
VERTEX
  8
0
 62
7
 10
     10.3022
 20
      0.5141
 30
      0.0000
 42
          0.1962617
  0
VERTEX
  8
0
 62
7
 10
     10.2153
 20
      0.5513
 30
      0.0000
  0
VERTEX
  8
0
 62
7
 10
      9.5216
 20
      0.5635
 30
      0.0000
 42
         -0.2342772
  0
VERTEX
  8
0
 62
7
 10
      9.3737
 20
      0.6400
 30
      0.0000
  0
VERTEX
  8
0
 62
7
 10
      8.2828
 20
      2.1273
 30
      0.0000
 42
         -0.4077746
  0
VERTEX
  8
0
 62
7
 10
      8.3198
 20
      2.3869
 30
      0.0000
  0
VERTEX
  8
0
 62
7
 10
      9.0463
 20
      2.9448
 30
      0.0000
 42
         -0.2658957
  0
VERTEX
  8
0
 62
7
 10
      9.2309
 20
      2.9699
 30
      0.0000
  0
VERTEX
  8
0
 62
7
 10
     10.3896
 20
      2.5009
 30
      0.0000
 42
         -0.5000001
  0
VERTEX
  8
0
 62
7
 10
     10.8530
 20
      2.3132
 30
      0.0000
  0
VERTEX
  8
0
 62
7
 10
     12.4751
 20
      1.6566
 30
      0.0000
 42
         -0.4352390
  0
VERTEX
  8
0
 62
7
 10
     12.5731
 20
      1.4002
 30
      0.0000
  0
SEQEND
  8
0
 62
7
  0
TEXT
  8
251
 62
13
 10
     11.8941
 20
      0.5253
 30
      0.0000
 40
      0.3000
 1
1
  0
POLYLINE
  8
0
 62
7
 10
      0.0000
 20
      0.0000
 30
      0.0000
 66
  1
 70
  1
  0
VERTEX
  8
0
 62
7
 10
     12.4375
 20
      2.8000
 30
      0.0000
  0
VERTEX
  8
0
 62
7
 10
     12.5606
 20
      2.9015
 30
      0.0000
 42
          0.4077763
  0
VERTEX
  8
0
 62
7
 10
     12.5699
 20
      2.9884
 30
      0.0000
  0
VERTEX
  8
0
 62
7
 10
     12.3222
 20
      3.3026
 30
      0.0000
 42
          0.8275334
  0
VERTEX
  8
0
 62
7
 10
     12.2132
 20
      3.2459
 30
      0.0000
  0
VERTEX
  8
0
 62
7
 10
     12.3379
 20
      2.8303
 30
      0.0000
 42
          0.5363429
  0
VERTEX
  8
0
 62
7
 10
     12.4375
 20
      2.8000
 30
      0.0000
  0
SEQEND
  8
0
 62
7
  0
POLYLINE
  8
0
 62
7
 10
      0.0000
 20
      0.0000
 30
      0.0000
 66
  1
 70
  1
  0
VERTEX
  8
0
 62
7
 10
     11.6978
 20
      2.8764
 30
      0.0000
 42
          0.6172232
  0
VERTEX
  8
0
 62
7
 10
     11.7791
 20
      2.9530
 30
      0.0000
  0
VERTEX
  8
0
 62
7
 10
     11.6064
 20
      3.5287
 30
      0.0000
 42
          0.3578605
  0
VERTEX
  8
0
 62
7
 10
     11.5406
 20
      3.5730
 30
      0.0000
  0
VERTEX
  8
0
 62
7
 10
     10.4267
 20
      3.4666
 30
      0.0000
 42
          0.7990322
  0
VERTEX
  8
0
 62
7
 10
     10.4112
 20
      3.3456
 30
      0.0000
  0
VERTEX
  8
0
 62
7
 10
     11.0337
 20
      3.1186
 30
      0.0000
  0
SEQEND
  8
0
 62
7
  0
POLYLINE
  8
0
 62
7
 10
      0.0000
 20
      0.0000
 30
      0.0000
 66
  1
 70
  1
  0
VERTEX
  8
0
 62
7
 10
     10.8971
 20
      3.8882
 30
      0.0000
  0
VERTEX
  8
0
 62
7
 10
     10.8971
 20
      3.8882
 30
      0.0000
 42
         -0.1646014
  0
VERTEX
  8
0
 62
7
 10
     10.6327
 20
      3.9799
 30
      0.0000
 42
          0.1710465
  0
VERTEX
  8
0
 62
7
 10
     10.5539
 20
      4.0062
 30
      0.0000
  0
VERTEX
  8
0
 62
7
 10
      9.6444
 20
      3.9903
 30
      0.0000
 42
          0.2908975
  0
VERTEX
  8
0
 62
7
 10
      9.5885
 20
      3.9533
 30
      0.0000
  0
VERTEX
  8
0
 62
7
 10
      9.5327
 20
      3.8287
 30
      0.0000
 42
          0.5748978
  0
VERTEX
  8
0
 62
7
 10
      9.5803
 20
      3.7624
 30
      0.0000
  0
SEQEND
  8
0
 62
7
  0
CIRCLE
  8
0
 62
7
 10
      9.4007
 20
      4.2986
 30
      0.0000
 40
      0.0860
  0
CIRCLE
  8
0
 62
7
 10
     11.9003
 20
      4.3422
 30
      0.0000
 40
      0.0860
  0
CIRCLE
  8
0
 62
7
 10
     12.3358
 20
      2.3110
 30
      0.0000
 40
      0.0860
  0
CIRCLE
  8
0
 62
7
 10
      9.0477
 20
      3.5103
 30
      0.0000
 40
      0.0860
  0
CIRCLE
  8
0
 62
7
 10
     13.0424
 20
      2.8939
 30
      0.0000
 40
      0.0860
  0
CIRCLE
  8
0
 62
7
 10
     10.9004
 20
      4.3248
 30
      0.0000
 40
      0.2188
  0
CIRCLE
  8
0
 62
7
 10
     10.9266
 20
      2.8250
 30
      0.0000
 40
      0.2188
  0
POLYLINE
  8
0
 62
7
 10
      0.0000
 20
      0.0000
 30
      0.0000
 66
  1
 70
  1
  0
VERTEX
  8
0
 62
7
 10
      9.2295
 20
      4.3752
 30
      0.0000
 42
         -0.2908982
  0
VERTEX
  8
0
 62
7
 10
      9.3974
 20
      4.4861
 30
      0.0000
  0
VERTEX
  8
0
 62
7
 10
     10.5910
 20
      4.5069
 30
      0.0000
 42
          0.1962618
  0
VERTEX
  8
0
 62
7
 10
     10.6779
 20
      4.5441
 30
      0.0000
 42
         -0.4082473
  0
VERTEX
  8
0
 62
7
 10
     11.1152
 20
      4.5518
 30
      0.0000
 42
          0.1962640
  0
VERTEX
  8
0
 62
7
 10
     11.2033
 20
      4.5176
 30
      0.0000
  0
VERTEX
  8
0
 62
7
 10
     11.8970
 20
      4.5297
 30
      0.0000
 42
         -0.2342770
  0
VERTEX
  8
0
 62
7
 10
     12.0475
 20
      4.4583
 30
      0.0000
  0
VERTEX
  8
0
 62
7
 10
     13.1896
 20
      3.0100
 30
      0.0000
 42
         -0.4077728
  0
VERTEX
  8
0
 62
7
 10
     13.1617
 20
      2.7493
 30
      0.0000
  0
VERTEX
  8
0
 62
7
 10
     12.4551
 20
      2.1664
 30
      0.0000
 42
         -0.2658950
  0
VERTEX
  8
0
 62
7
 10
     12.2716
 20
      2.1348
 30
      0.0000
  0
VERTEX
  8
0
 62
7
 10
     11.0972
 20
      2.5632
 30
      0.0000
 42
         -0.4999994
  0
VERTEX
  8
0
 62
7
 10
     10.6275
 20
      2.7345
 30
      0.0000
  0
VERTEX
  8
0
 62
7
 10
      8.9835
 20
      3.3342
 30
      0.0000
 42
         -0.4352403
  0
VERTEX
  8
0
 62
7
 10
      8.8766
 20
      3.5870
 30
      0.0000
  0
SEQEND
  8
0
 62
7
  0
TEXT
  8
251
 62
13
 10
      9.2300
 20
      4.1799
 30
      0.0000
 40
      0.3000
 1
1
  0
CIRCLE
  8
1
 62
7
 10
     14.2500
 20
      6.1983
 30
      0.0000
 40
      0.0860
  0
CIRCLE
  8
1
 62
7
 10
     10.2500
 20
      8.1983
 30
      0.0000
 40
      0.0860
  0
CIRCLE
  8
1
 62
7
 10
      8.7500
 20
      8.1983
 30
      0.0000
 40
      0.0860
  0
CIRCLE
  8
1
 62
7
 10
      0.5000
 20
      6.4483
 30
      0.0000
 40
      0.0860
  0
LINE
  8
1
 62
7
 10
     14.0000
 20
      4.6983
 30
      0.0000
 11
      1.0000
 21
      4.6983
 31
      0.0000
  0
ARC
  8
1
 62
7
 10
      1.0000
 20
      5.6983
 30
      0.0000
 40
      1.0000
 50
 180.0000
 51
 270.0000
  0
LINE
  8
1
 62
7
 10
      0.0000
 20
      5.6983
 30
      0.0000
 11
      0.0000
 21
      6.8446
 31
      0.0000
  0
ARC
  8
1
 62
7
 10
      0.1250
 20
      6.8446
 30
      0.0000
 40
      0.1250
 50
 100.6191
 51
 180.0000
  0
LINE
  8
1
 62
7
 10
      0.1020
 20
      6.9675
 30
      0.0000
 11
      7.9886
 21
      8.4462
 31
      0.0000
  0
ARC
  8
1
 62
7
 10
      8.0116
 20
      8.3233
 30
      0.0000
 40
      0.1250
 50
  90.0000
 51
 100.6198
  0
LINE
  8
1
 62
7
 10
      8.0116
 20
      8.4483
 30
      0.0000
 11
     10.9743
 21
      8.4483
 31
      0.0000
  0
ARC
  8
1
 62
7
 10
     10.9743
 20
      8.3233
 30
      0.0000
 40
      0.1250
 50
  66.8015
 51
  90.0000
  0
LINE
  8
1
 62
7
 10
     11.0236
 20
      8.4382
 30
      0.0000
 11
     13.4375
 21
      7.4037
 31
      0.0000
  0
LINE
  8
1
 62
7
 10
     13.4375
 20
      7.4037
 30
      0.0000
 11
     13.4375
 21
      7.1626
 31
      0.0000
  0
LINE
  8
1
 62
7
 10
     13.4375
 20
      7.1626
 30
      0.0000
 11
     14.0000
 21
      7.1626
 31
      0.0000
  0
LINE
  8
1
 62
7
 10
     14.0000
 20
      7.1626
 30
      0.0000
 11
     14.4242
 21
      6.9808
 31
      0.0000
  0
ARC
  8
1
 62
7
 10
     14.3750
 20
      6.8659
 30
      0.0000
 40
      0.1250
 50
   0.0000
 51
  66.8014
  0
LINE
  8
1
 62
7
 10
     14.5000
 20
      6.8659
 30
      0.0000
 11
     14.5000
 21
      5.1983
 31
      0.0000
  0
ARC
  8
1
 62
7
 10
     14.0000
 20
      5.1983
 30
      0.0000
 40
      0.5000
 50
 270.0000
 51
 360.0000
  0
TEXT
  8
251
 62
13
 10
      7.3500
 20
      4.6983
 30
      0.0000
 40
      0.3000
 1
4
  0
CIRCLE
  8
1
 62
7
 10
      0.2500
 20
     10.4807
 30
      0.0000
 40
      0.0860
  0
CIRCLE
  8
1
 62
7
 10
      4.2500
 20
      8.4807
 30
      0.0000
 40
      0.0860
  0
CIRCLE
  8
1
 62
7
 10
      5.7500
 20
      8.4807
 30
      0.0000
 40
      0.0860
  0
CIRCLE
  8
1
 62
7
 10
     14.0000
 20
     10.2307
 30
      0.0000
 40
      0.0860
  0
LINE
  8
1
 62
7
 10
      0.5000
 20
     11.9807
 30
      0.0000
 11
     13.5000
 21
     11.9807
 31
      0.0000
  0
ARC
  8
1
 62
7
 10
     13.5000
 20
     10.9807
 30
      0.0000
 40
      1.0000
 50
   0.0000
 51
  90.0000
  0
LINE
  8
1
 62
7
 10
     14.5000
 20
     10.9807
 30
      0.0000
 11
     14.5000
 21
      9.8344
 31
      0.0000
  0
ARC
  8
1
 62
7
 10
     14.3750
 20
      9.8344
 30
      0.0000
 40
      0.1250
 50
 280.6192
 51
 360.0000
  0
LINE
  8
1
 62
7
 10
     14.3980
 20
      9.7116
 30
      0.0000
 11
      6.5114
 21
      8.2328
 31
      0.0000
  0
ARC
  8
1
 62
7
 10
      6.4884
 20
      8.3557
 30
      0.0000
 40
      0.1250
 50
 270.0000
 51
 280.6196
  0
LINE
  8
1
 62
7
 10
      6.4884
 20
      8.2307
 30
      0.0000
 11
      3.5257
 21
      8.2307
 31
      0.0000
  0
ARC
  8
1
 62
7
 10
      3.5257
 20
      8.3557
 30
      0.0000
 40
      0.1250
 50
 246.8017
 51
 270.0000
  0
LINE
  8
1
 62
7
 10
      3.4764
 20
      8.2408
 30
      0.0000
 11
      1.0625
 21
      9.2753
 31
      0.0000
  0
LINE
  8
1
 62
7
 10
      1.0625
 20
      9.2753
 30
      0.0000
 11
      1.0625
 21
      9.5164
 31
      0.0000
  0
LINE
  8
1
 62
7
 10
      1.0625
 20
      9.5164
 30
      0.0000
 11
      0.5000
 21
      9.5164
 31
      0.0000
  0
LINE
  8
1
 62
7
 10
      0.5000
 20
      9.5164
 30
      0.0000
 11
      0.0758
 21
      9.6982
 31
      0.0000
  0
ARC
  8
1
 62
7
 10
      0.1250
 20
      9.8131
 30
      0.0000
 40
      0.1250
 50
 180.0000
 51
 246.8014
  0
LINE
  8
1
 62
7
 10
      0.0000
 20
      9.8131
 30
      0.0000
 11
      0.0000
 21
     11.4807
 31
      0.0000
  0
ARC
  8
1
 62
7
 10
      0.5000
 20
     11.4807
 30
      0.0000
 40
      0.5000
 50
  90.0000
 51
 180.0000
  0
TEXT
  8
251
 62
13
 10
      6.8500
 20
     11.6807
 30
      0.0000
 40
      0.3000
 1
4
  0
POLYLINE
  8
0
 62
7
 10
      0.0000
 20
      0.0000
 30
      0.0000
 66
  1
 70
  1
  0
VERTEX
  8
0
 62
7
 10
     13.2165
 20
      0.8042
 30
      0.0000
  0
VERTEX
  8
0
 62
7
 10
     13.3137
 20
      0.6777
 30
      0.0000
 42
          0.4077773
  0
VERTEX
  8
0
 62
7
 10
     13.4002
 20
      0.6654
 30
      0.0000
  0
VERTEX
  8
0
 62
7
 10
     13.7228
 20
      0.9020
 30
      0.0000
 42
          0.8275343
  0
VERTEX
  8
0
 62
7
 10
     13.6700
 20
      1.0128
 30
      0.0000
  0
VERTEX
  8
0
 62
7
 10
     13.2502
 20
      0.9027
 30
      0.0000
 42
          0.5363353
  0
VERTEX
  8
0
 62
7
 10
     13.2165
 20
      0.8042
 30
      0.0000
  0
SEQEND
  8
0
 62
7
  0
POLYLINE
  8
0
 62
7
 10
      0.0000
 20
      0.0000
 30
      0.0000
 66
  1
 70
  1
  0
VERTEX
  8
0
 62
7
 10
     13.3186
 20
      1.5408
 30
      0.0000
 42
          0.6172132
  0
VERTEX
  8
0
 62
7
 10
     13.3924
 20
      1.4569
 30
      0.0000
  0
VERTEX
  8
0
 62
7
 10
     13.9738
 20
      1.6094
 30
      0.0000
 42
          0.3578719
  0
VERTEX
  8
0
 62
7
 10
     14.0203
 20
      1.6736
 30
      0.0000
  0
VERTEX
  8
0
 62
7
 10
     13.9528
 20
      2.7905
 30
      0.0000
 42
          0.7990271
  0
VERTEX
  8
0
 62
7
 10
     13.8325
 20
      2.8102
 30
      0.0000
  0
VERTEX
  8
0
 62
7
 10
     13.5839
 20
      2.1960
 30
      0.0000
  0
SEQEND
  8
0
 62
7
  0
POLYLINE
  8
0
 62
7
 10
      0.0000
 20
      0.0000
 30
      0.0000
 66
  1
 70
  1
  0
VERTEX
  8
0
 62
7
 10
     14.3578
 20
      2.3057
 30
      0.0000
  0
VERTEX
  8
0
 62
7
 10
     14.3578
 20
      2.3057
 30
      0.0000
 42
         -0.1646018
  0
VERTEX
  8
0
 62
7
 10
     14.4587
 20
      2.5667
 30
      0.0000
 42
          0.1710478
  0
VERTEX
  8
0
 62
7
 10
     14.4877
 20
      2.6446
 30
      0.0000
  0
VERTEX
  8
0
 62
7
 10
     14.5036
 20
      3.5541
 30
      0.0000
 42
          0.2909048
  0
VERTEX
  8
0
 62
7
 10
     14.4686
 20
      3.6113
 30
      0.0000
  0
VERTEX
  8
0
 62
7
 10
     14.3460
 20
      3.6714
 30
      0.0000
 42
          0.5749013
  0
VERTEX
  8
0
 62
7
 10
     14.2781
 20
      3.6261
 30
      0.0000
  0
SEQEND
  8
0
 62
7
  0
CIRCLE
  8
0
 62
7
 10
     14.8202
 20
      3.7869
 30
      0.0000
 40
      0.0860
  0
CIRCLE
  8
0
 62
7
 10
     14.7765
 20
      1.2873
 30
      0.0000
 40
      0.0860
  0
CIRCLE
  8
0
 62
7
 10
     12.7314
 20
      0.9229
 30
      0.0000
 40
      0.0860
  0
CIRCLE
  8
0
 62
7
 10
     14.0447
 20
      4.1672
 30
      0.0000
 40
      0.0860
  0
CIRCLE
  8
0
 62
7
 10
     13.2893
 20
      0.1964
 30
      0.0000
 40
      0.0860
  0
CIRCLE
  8
0
 62
7
 10
     14.7940
 20
      2.2871
 30
      0.0000
 40
      0.2188
  0
CIRCLE
  8
0
 62
7
 10
     13.2942
 20
      2.3133
 30
      0.0000
 40
      0.2188
  0
POLYLINE
  8
0
 62
7
 10
      0.0000
 20
      0.0000
 30
      0.0000
 66
  1
 70
  1
  0
VERTEX
  8
0
 62
7
 10
     14.9027
 20
      3.9553
 30
      0.0000
 42
         -0.2908964
  0
VERTEX
  8
0
 62
7
 10
     15.0076
 20
      3.7836
 30
      0.0000
  0
VERTEX
  8
0
 62
7
 10
     14.9868
 20
      2.5900
 30
      0.0000
 42
          0.1962606
  0
VERTEX
  8
0
 62
7
 10
     15.0210
 20
      2.5019
 30
      0.0000
 42
         -0.4082470
  0
VERTEX
  8
0
 62
7
 10
     15.0134
 20
      2.0646
 30
      0.0000
 42
          0.1962599
  0
VERTEX
  8
0
 62
7
 10
     14.9761
 20
      1.9777
 30
      0.0000
  0
VERTEX
  8
0
 62
7
 10
     14.9640
 20
      1.2840
 30
      0.0000
 42
         -0.2342758
  0
VERTEX
  8
0
 62
7
 10
     14.8874
 20
      1.1361
 30
      0.0000
  0
VERTEX
  8
0
 62
7
 10
     13.4002
 20
      0.0452
 30
      0.0000
 42
         -0.4077749
  0
VERTEX
  8
0
 62
7
 10
     13.1405
 20
      0.0822
 30
      0.0000
  0
VERTEX
  8
0
 62
7
 10
     12.5826
 20
      0.8087
 30
      0.0000
 42
         -0.2658951
  0
VERTEX
  8
0
 62
7
 10
     12.5576
 20
      0.9933
 30
      0.0000
  0
VERTEX
  8
0
 62
7
 10
     13.0266
 20
      2.1519
 30
      0.0000
 42
         -0.4999990
  0
VERTEX
  8
0
 62
7
 10
     13.2142
 20
      2.6154
 30
      0.0000
  0
VERTEX
  8
0
 62
7
 10
     13.8709
 20
      4.2375
 30
      0.0000
 42
         -0.4352406
  0
VERTEX
  8
0
 62
7
 10
     14.1273
 20
      4.3355
 30
      0.0000
  0
SEQEND
  8
0
 62
7
  0
TEXT
  8
251
 62
13
 10
     14.7022
 20
      3.6565
 30
      0.0000
 40
      0.3000
 1
1
  0
CIRCLE
  8
1
 62
7
 10
     13.6020
 20
      8.0125
 30
      0.0000
 40
      0.0860
  0
CIRCLE
  8
1
 62
7
 10
     14.8020
 20
      7.1125
 30
      0.0000
 40
      0.0860
  0
CIRCLE
  8
1
 62
7
 10
     14.8020
 20
      9.6125
 30
      0.0000
 40
      0.0860
  0
LINE
  8
1
 62
7
 10
     13.4020
 20
      8.1625
 30
      0.0000
 11
     14.6020
 21
      9.7625
 31
      0.0000
  0
ARC
  8
1
 62
7
 10
     14.8020
 20
      9.6125
 30
      0.0000
 40
      0.2500
 50
   0.0000
 51
 143.1302
  0
LINE
  8
1
 62
7
 10
     15.0520
 20
      9.6125
 30
      0.0000
 11
     15.0520
 21
      7.1125
 31
      0.0000
  0
ARC
  8
1
 62
7
 10
     14.8020
 20
      7.1125
 30
      0.0000
 40
      0.2500
 50
 233.1301
 51
 360.0000
  0
LINE
  8
1
 62
7
 10
     14.6520
 20
      6.9125
 30
      0.0000
 11
     13.4520
 21
      7.8125
 31
      0.0000
  0
ARC
  8
1
 62
7
 10
     13.6020
 20
      8.0125
 30
      0.0000
 40
      0.2500
 50
 143.1302
 51
 233.1300
  0
TEXT
  8
251
 62
13
 10
     13.9720
 20
      8.7225
 30
      0.0000
 40
      0.3000
 1
2
  0
TEXT
  8
251
 62
13
 10
     -0.8000
 20
     -1.2000
 30
      0.0000
 40
      0.3200
 1
1)gearbox_gusset(4)
  0
TEXT
  8
251
 62
13
 10
     15.5200
 20
     -1.2000
 30
      0.0000
 40
      0.3200
 1
2)intake_gusset(2)
  0
TEXT
  8
251
 62
13
 10
     -0.8000
 20
     -1.8000
 30
      0.0000
 40
      0.3200
 1
3)intake_wedge
  0
TEXT
  8
251
 62
13
 10
     14.5600
 20
     -1.8000
 30
      0.0000
 40
      0.3200
 1
4)side_panel(2)
  0
ENDSEC
  0
EOF
